<svg xmlns="http://www.w3.org/2000/svg" version="1.1" xmlns:xlink="http://www.w3.org/1999/xlink" xmlns:svgjs="http://svgjs.com/svgjs" height="218.11588249206542" width="377.6099853515625"><defs id="SvgjsDefs1006"></defs><g id="SvgjsG1007" rel="mainfill" name="main_text" xmlns:name="main_text" transform="translate(5.349992036819458,-51.89411201477051)" fill="#000000"><path d="M51.83 240Q50.50 240.39 48.70 240.39Q47.37 240.39 45.61 240.08Q43.85 239.77 42.01 238.71Q40.17 237.65 38.41 235.62Q36.64 233.58 35.39 230.21L33.43 225.12L11.51 225.12L5.25 240L1.72 240L23.65 188.32L26.00 188.32L43.22 230.21Q44.16 232.40 44.98 233.93Q45.81 235.46 46.82 236.40Q47.84 237.34 49.02 237.81Q50.19 238.28 51.83 238.43L51.83 240M12.68 221.99L31.87 221.99L22.47 199.28L12.68 221.99ZM82.68 213.38Q84.33 213.38 86.40 212.75Q88.48 212.13 90.36 210.83Q92.24 209.54 93.53 207.47Q94.82 205.39 94.82 202.42Q94.82 199.36 93.53 197.17Q92.24 194.98 90.36 193.65Q88.48 192.32 86.40 191.69Q84.33 191.06 82.68 191.06Q81.20 191.06 79.59 191.30Q77.99 191.53 76.81 191.85L76.81 212.59Q77.99 212.91 79.59 213.14Q81.20 213.38 82.68 213.38M82.29 216.12L76.81 216.12L76.81 240L69.77 240L69.77 197.72Q69.77 194.19 68.79 192.04Q67.81 189.89 64.28 189.89L62.72 189.89L62.72 188.32L83.08 188.32Q85.58 188.32 88.95 188.75Q92.32 189.18 95.37 190.67Q98.42 192.16 100.54 194.94Q102.65 197.72 102.65 202.42Q102.65 205.78 101.48 208.13Q100.30 210.48 98.46 212.01Q96.62 213.53 94.39 214.40Q92.16 215.26 90.12 215.73L98.34 229.43Q99.83 231.94 101.12 233.58Q102.42 235.22 103.67 236.28Q104.92 237.34 106.17 237.81Q107.43 238.28 108.92 238.43L108.92 240Q108.29 240.31 107.00 240.55Q105.70 240.78 104.22 240.78Q102.18 240.78 100.42 240.23Q98.66 239.69 97.01 238.36Q95.37 237.02 93.69 234.83Q92.00 232.64 90.12 229.43L82.29 216.12ZM164.51 188.32L164.51 191.45L146.89 191.45L146.89 240L139.84 240L139.84 191.45L132.80 191.45Q128.10 191.45 125.55 193.61Q123.01 195.76 123.01 200.46L121.44 200.46L121.44 194.59Q121.44 193.41 121.72 192.28Q121.99 191.14 122.74 190.28Q123.48 189.42 124.77 188.87Q126.06 188.32 128.10 188.32L164.51 188.32ZM209.77 244.70L178.45 244.70L178.45 240L209.77 240L209.77 244.70ZM253.30 221.60Q253.30 218.23 252.60 215.30Q251.89 212.36 250.60 210.21Q249.31 208.05 247.51 206.80Q245.71 205.55 243.51 205.55Q241.32 205.55 239.52 206.80Q237.72 208.05 236.43 210.21Q235.13 212.36 234.43 215.30Q233.73 218.23 233.73 221.60Q233.73 224.97 234.43 227.90Q235.13 230.84 236.43 232.99Q237.72 235.15 239.52 236.40Q241.32 237.65 243.51 237.65Q245.71 237.65 247.51 236.40Q249.31 235.15 250.60 232.99Q251.89 230.84 252.60 227.90Q253.30 224.97 253.30 221.60M226.29 221.60Q226.29 217.61 227.42 214.12Q228.56 210.64 230.79 208.05Q233.02 205.47 236.19 203.94Q239.36 202.42 243.51 202.42Q247.58 202.42 250.79 203.94Q254.01 205.47 256.24 208.05Q258.47 210.64 259.60 214.12Q260.74 217.61 260.74 221.60Q260.74 225.59 259.60 229.08Q258.47 232.56 256.24 235.15Q254.01 237.73 250.79 239.26Q247.58 240.78 243.51 240.78Q239.36 240.78 236.19 239.26Q233.02 237.73 230.79 235.15Q228.56 232.56 227.42 229.08Q226.29 225.59 226.29 221.60ZM282.82 212.59Q282.82 209.07 281.84 206.92Q280.86 204.76 277.34 204.76L275.77 204.76L275.77 203.20L282.82 203.20Q285.80 203.20 287.32 204.02Q288.85 204.84 289.48 206.33L289.87 206.33Q291.35 204.84 293.94 203.63Q296.52 202.42 300.05 202.42Q302.55 202.42 304.94 203.00Q307.33 203.59 309.21 205.20Q311.09 206.80 312.22 209.54Q313.36 212.28 313.36 216.51L313.36 240L306.31 240L306.31 216.51Q306.31 213.61 305.57 211.58Q304.82 209.54 303.61 208.29Q302.39 207.04 300.87 206.49Q299.34 205.94 297.70 205.94Q295.35 205.94 293.35 207.19Q291.35 208.45 289.87 210.09L289.87 240L282.82 240L282.82 212.59ZM365.03 222.77L341.31 222.77Q341.31 225.98 342.01 228.72Q342.72 231.47 344.09 233.46Q345.46 235.46 347.42 236.55Q349.37 237.65 351.88 237.65Q355.72 237.65 358.26 236.01Q360.81 234.36 362.84 231.39L364.41 232.56Q361.75 237.02 358.26 238.90Q354.78 240.78 350.31 240.78Q346.16 240.78 343.11 239.26Q340.06 237.73 337.98 235.15Q335.91 232.56 334.89 229.08Q333.87 225.59 333.87 221.60Q333.87 217.61 334.93 214.12Q335.99 210.64 338.02 208.05Q340.06 205.47 342.95 203.94Q345.85 202.42 349.53 202.42Q357.52 202.42 361.35 206.88Q365.19 211.34 365.19 219.64L365.03 222.77M357.75 219.64Q357.75 212.83 355.72 209.19Q353.68 205.55 349.53 205.55Q347.73 205.55 346.24 206.61Q344.75 207.66 343.66 209.54Q342.56 211.42 341.94 214.00Q341.31 216.59 341.31 219.64L357.75 219.64Z" fill="#000000" style="fill: rgb(0, 0, 0);"></path></g><g id="SvgjsG1008" rel="mainfill" name="slogan_text" xmlns:name="slogan_text" transform="translate(-0.10000000149011612,-26.944115066528326)" fill="#000000"><path d="M3.54 230.88L6.89 230.88L6.89 239.08L2.47 239.08C3.33 236.81 3.52 234.21 3.54 230.88ZM9.76 239.08L8.36 239.08L8.36 229.96L2.57 229.96C2.57 233.95 2.35 236.71 1.37 239.08L0.10 239.08L0.20 243.01L1.04 243.01L1.31 240L8.56 240L8.80 243.01L9.62 243.01ZM28.19 230.64C30.07 230.64 30.92 232.10 30.92 234.98C30.92 237.87 30.07 239.32 28.19 239.32C26.28 239.32 25.45 237.85 25.45 234.98C25.45 232.10 26.28 230.64 28.19 230.64ZM32.47 234.98C32.47 231.70 31.00 229.75 28.19 229.75C25.37 229.75 23.91 231.70 23.91 234.98C23.91 238.25 25.37 240.20 28.19 240.20C30.92 240.20 32.47 238.25 32.47 234.98ZM51.55 230.74C53.30 230.74 54.36 231.82 54.36 234.74C54.36 237.71 53.46 239.24 51.35 239.24C50.00 239.24 49.34 238.47 49.24 238.35L49.24 232.10C49.24 232.10 49.90 230.74 51.55 230.74ZM47.79 245.06L49.24 245.02L49.24 239.24L49.26 239.24C49.26 239.24 49.98 240.20 51.83 240.20C54.48 240.20 55.91 237.99 55.91 234.70C55.91 231.54 54.36 229.75 52.03 229.75C50.14 229.75 49.32 230.94 49.18 231.16L49.00 229.96L47.79 229.96ZM74.73 230.64C76.62 230.64 77.47 232.10 77.47 234.98C77.47 237.87 76.62 239.32 74.73 239.32C72.83 239.32 72.00 237.85 72.00 234.98C72.00 232.10 72.83 230.64 74.73 230.64ZM79.01 234.98C79.01 231.70 77.55 229.75 74.73 229.75C71.92 229.75 70.46 231.70 70.46 234.98C70.46 238.25 71.92 240.20 74.73 240.20C77.47 240.20 79.01 238.25 79.01 234.98ZM100.27 229.96L98.80 229.96L98.80 234.25L97.34 234.23L94.82 229.96L93.66 229.96L96.45 234.60L93.34 240L94.95 240L97.68 235.12L98.80 235.14L98.80 240L100.27 240L100.27 235.16L101.43 235.14L104.13 240L105.75 240L102.62 234.64L105.59 229.96L104.45 229.96L101.70 234.23L100.27 234.25ZM120.82 240L122.27 240L122.27 235.28L126.75 235.28L126.75 240L128.21 240L128.21 229.96L126.75 229.96L126.75 234.37L122.27 234.37L122.27 229.96L120.82 229.96ZM149.09 237.85C149.09 237.85 148.42 239.32 146.78 239.32C145.67 239.32 144.91 238.73 144.91 237.55C144.91 235.68 147.12 235.14 149.09 234.92ZM144.55 231.50C144.55 231.50 145.83 230.64 147.00 230.64C148.51 230.64 149.09 231.18 149.09 233.11L149.09 234.17C147.00 234.39 143.40 235.02 143.40 237.73C143.40 239.32 144.61 240.20 146.34 240.20C148.47 240.20 149.19 238.69 149.19 238.69L149.21 238.69C149.29 239.88 149.69 240.20 150.35 240.20C150.94 240.20 151.92 239.82 151.92 239.82L151.86 239.14C151.86 239.14 151.38 239.32 151.08 239.32C150.84 239.32 150.55 239.16 150.55 237.95L150.55 233.03C150.55 230.52 149.43 229.75 147.22 229.75C145.75 229.75 144.39 230.68 144.39 230.68ZM167.65 232.95C167.65 231.44 168.51 230.76 170.12 230.76L171.69 230.76L171.69 235.06L170.14 235.06L170.08 235.06C168.72 235.06 167.65 234.37 167.65 232.95ZM173.14 229.96L170.00 229.96C167.57 229.96 166.22 230.94 166.22 232.95C166.22 234.29 167.23 235.20 168.43 235.60L166.26 240L167.75 240L169.68 235.86L171.69 235.86L171.69 240L173.14 240ZM206.95 240L208.39 240L208.39 235.48L209.50 234.96L212.47 240L214.16 240L210.58 234.07L213.56 229.96L212.53 229.96L209.64 233.87L208.39 234.56L208.39 229.96L206.95 229.96ZM232.68 230.64C234.57 230.64 235.41 232.10 235.41 234.98C235.41 237.87 234.57 239.32 232.68 239.32C230.77 239.32 229.95 237.85 229.95 234.98C229.95 232.10 230.77 230.64 232.68 230.64ZM236.96 234.98C236.96 231.70 235.49 229.75 232.68 229.75C229.87 229.75 228.40 231.70 228.40 234.98C228.40 238.25 229.87 240.20 232.68 240.20C235.41 240.20 236.96 238.25 236.96 234.98ZM262.21 229.96L260.45 229.96L257.29 238.51L254.30 229.96L252.51 229.96L252.23 240L253.17 240L253.33 231.66L253.35 231.44L256.53 240L257.65 240L260.91 231.44L260.93 232.02L261.01 240L262.36 240ZM285.60 229.96L278.37 229.96L278.37 240L279.81 240L279.81 230.90L284.15 230.90L284.15 240L285.60 240ZM306.49 237.85C306.49 237.85 305.83 239.32 304.18 239.32C303.08 239.32 302.31 238.73 302.31 237.55C302.31 235.68 304.52 235.14 306.49 234.92ZM301.95 231.50C301.95 231.50 303.24 230.64 304.40 230.64C305.91 230.64 306.49 231.18 306.49 233.11L306.49 234.17C304.40 234.39 300.81 235.02 300.81 237.73C300.81 239.32 302.01 240.20 303.74 240.20C305.87 240.20 306.59 238.69 306.59 238.69L306.61 238.69C306.69 239.88 307.10 240.20 307.76 240.20C308.34 240.20 309.33 239.82 309.33 239.82L309.27 239.14C309.27 239.14 308.78 239.32 308.48 239.32C308.24 239.32 307.96 239.16 307.96 237.95L307.96 233.03C307.96 230.52 306.83 229.75 304.62 229.75C303.16 229.75 301.79 230.68 301.79 230.68ZM324.31 240L325.76 240L325.76 235.28L330.24 235.28L330.24 240L331.71 240L331.71 229.96L330.24 229.96L330.24 234.37L325.76 234.37L325.76 229.96L324.31 229.96ZM354.11 229.96L349.20 237.97L349.20 229.96L347.76 229.96L347.76 240L348.88 240L353.95 231.76L353.95 240L355.41 240L355.41 229.96ZM372.23 232.95C372.23 231.44 373.09 230.76 374.70 230.76L376.27 230.76L376.27 235.06L374.72 235.06L374.66 235.06C373.29 235.06 372.23 234.37 372.23 232.95ZM377.71 229.96L374.58 229.96C372.15 229.96 370.80 230.94 370.80 232.95C370.80 234.29 371.81 235.20 373.01 235.60L370.84 240L372.33 240L374.26 235.86L376.27 235.86L376.27 240L377.71 240Z" fill="#000000" style="fill: rgb(0, 0, 0);"></path></g><g id="SvgjsG1009" rel="mainfill" name="symbol" xmlns:name="symbol_mainfill" transform="translate(116.23321695774793,-22.12410192489624) scale(1.45)" fill="#464646"><g fill="#464646"><path d="M93.473,19.808l-0.121-2.229l1.252-0.06C97.301,17.374,99,17.294,100,17.266v-2.008c0,0-87.968,3.084-87.968,18.785   c0,15.699,33.588,33.737,33.433,42.737C45.249,89.027,11.313,95,0.099,99h44.515c1.339-1,2.815-1.641,4.516-2.619l0.966-0.463   l1.113,1.98l-0.968,0.396C49.727,98.589,49.239,99,48.765,99h31.332c0,0,15.591-8.984,15.233-22.398   c-0.448-16.711-55.191-33.709-54.953-42.424C40.629,25.006,100,21.984,100,21.984V19.5c-1,0.032-2.707,0.109-5.276,0.248   L93.473,19.808z M28.988,42.236l-0.646-0.91c-2.03-2.86-3.017-5.472-3.017-7.985c0-1.406,0.7-2.729,2.082-3.934l0.841-0.734   l1.467,1.682l-0.841,0.733c-0.874,0.762-1.316,1.52-1.316,2.252c0,2.006,0.876,4.258,2.605,6.694l0.646,0.91L28.988,42.236z    M67.396,88.024c-2.809,2.599-6.474,4.67-9.985,6.57l-0.982,0.53l-1.061-1.964l0.981-0.53c3.388-1.831,6.913-3.822,9.532-6.245   l0.818-0.758l1.516,1.638L67.396,88.024z M66.639,68.916l0.845,0.729c3.519,3.043,5.088,5.313,5.088,7.36   c-0.022,1.326-0.192,2.546-0.503,3.689l-0.292,1.077l-2.154-0.586l0.293-1.077c0.262-0.965,0.404-2,0.423-3.077   c0.001-0.911-0.748-2.613-4.314-5.698l-0.844-0.729L66.639,68.916z M50.316,57.262l3.842,2.643   c2.381,1.631,4.629,3.173,6.736,4.675l0.908,0.648l-1.297,1.817l-0.908-0.647c-2.09-1.491-4.33-3.026-6.701-4.652L49.05,59.1   L50.316,57.262z M44.557,53.175l0.901,0.66l-1.318,1.801l-0.901-0.658c-3.781-2.765-6.799-5.194-9.227-7.426l-0.822-0.755   l1.511-1.644l0.821,0.755C37.888,48.083,40.843,50.46,44.557,53.175z M47.013,24.865c-4.467,0.867-8.243,1.812-11.223,2.809   l-1.059,0.354l-0.708-2.116l1.059-0.354c3.072-1.028,6.943-1.998,11.506-2.884l1.095-0.212l0.425,2.191L47.013,24.865z    M66.637,21.999c-4.145,0.461-8.042,0.964-11.582,1.495l-1.104,0.166l-0.332-2.207l1.104-0.166   c3.567-0.536,7.493-1.042,11.667-1.506l1.109-0.124l0.246,2.219L66.637,21.999z M86.441,20.248c-4,0.276-7.924,0.588-11.664,0.93   l-1.111,0.102l-0.202-2.223l1.111-0.102c3.756-0.343,7.696-0.657,11.713-0.934l1.112-0.077l0.154,2.227L86.441,20.248z" fill="#464646" style="fill: rgb(70, 70, 70);"></path></g></g></svg>